<svg viewBox="0 0 900 580" xmlns="http://www.w3.org/2000/svg" font-family="'SF Pro Display',-apple-system,sans-serif">
  <rect width="900" height="580" fill="#1a1e0f"/>
  <text x="450" y="38" text-anchor="middle" font-size="15" font-weight="700" fill="#ffffff" letter-spacing="0.05em">OPS CONTROL ROOM MANAGEMENT PLATFORM</text>
  <text x="450" y="58" text-anchor="middle" font-size="10" fill="rgba(255,255,255,0.4)" letter-spacing="0.15em">49 CFR 195.446 · 192.631 · ISA-18.2</text>
  <rect x="40" y="85" width="130" height="54" rx="6" fill="none" stroke="rgba(139,155,85,0.5)" stroke-width="1.5"/>
  <text x="105" y="107" text-anchor="middle" font-size="10" font-weight="700" fill="#8A9B55" letter-spacing="0.08em">SCADA / HMI</text>
  <text x="105" y="124" text-anchor="middle" font-size="9" fill="rgba(255,255,255,0.45)">Alarm &amp; Event Data</text>
  <rect x="195" y="85" width="130" height="54" rx="6" fill="none" stroke="rgba(139,155,85,0.5)" stroke-width="1.5"/>
  <text x="260" y="107" text-anchor="middle" font-size="10" font-weight="700" fill="#8A9B55" letter-spacing="0.08em">CALLOUT SYSTEM</text>
  <text x="260" y="124" text-anchor="middle" font-size="9" fill="rgba(255,255,255,0.45)">Phone &amp; Response Logs</text>
  <rect x="350" y="85" width="130" height="54" rx="6" fill="none" stroke="rgba(139,155,85,0.5)" stroke-width="1.5"/>
  <text x="415" y="107" text-anchor="middle" font-size="10" font-weight="700" fill="#8A9B55" letter-spacing="0.08em">SCHEDULING</text>
  <text x="415" y="124" text-anchor="middle" font-size="9" fill="rgba(255,255,255,0.45)">Controller HOS &amp; Shifts</text>
  <rect x="505" y="85" width="130" height="54" rx="6" fill="none" stroke="rgba(139,155,85,0.5)" stroke-width="1.5"/>
  <text x="570" y="107" text-anchor="middle" font-size="10" font-weight="700" fill="#8A9B55" letter-spacing="0.08em">FIELD DATA</text>
  <text x="570" y="124" text-anchor="middle" font-size="9" fill="rgba(255,255,255,0.45)">P2P Verification</text>
  <rect x="660" y="85" width="200" height="54" rx="6" fill="none" stroke="rgba(139,155,85,0.5)" stroke-width="1.5"/>
  <text x="760" y="107" text-anchor="middle" font-size="10" font-weight="700" fill="#8A9B55" letter-spacing="0.08em">DOCUMENT CONTROL</text>
  <text x="760" y="124" text-anchor="middle" font-size="9" fill="rgba(255,255,255,0.45)">Revision-Controlled Records</text>
  <line x1="105" y1="139" x2="105" y2="195" stroke="rgba(139,155,85,0.35)" stroke-width="1.5" stroke-dasharray="4,3"/>
  <polygon points="105,198 101,191 109,191" fill="rgba(139,155,85,0.5)"/>
  <line x1="260" y1="139" x2="260" y2="195" stroke="rgba(139,155,85,0.35)" stroke-width="1.5" stroke-dasharray="4,3"/>
  <polygon points="260,198 256,191 264,191" fill="rgba(139,155,85,0.5)"/>
  <line x1="415" y1="139" x2="415" y2="195" stroke="rgba(139,155,85,0.35)" stroke-width="1.5" stroke-dasharray="4,3"/>
  <polygon points="415,198 411,191 419,191" fill="rgba(139,155,85,0.5)"/>
  <line x1="570" y1="139" x2="570" y2="195" stroke="rgba(139,155,85,0.35)" stroke-width="1.5" stroke-dasharray="4,3"/>
  <polygon points="570,198 566,191 574,191" fill="rgba(139,155,85,0.5)"/>
  <line x1="760" y1="139" x2="760" y2="195" stroke="rgba(139,155,85,0.35)" stroke-width="1.5" stroke-dasharray="4,3"/>
  <polygon points="760,198 756,191 764,191" fill="rgba(139,155,85,0.5)"/>
  <rect x="40" y="198" width="820" height="80" rx="8" fill="#2D3318" stroke="#6B7B3A" stroke-width="2"/>
  <text x="450" y="228" text-anchor="middle" font-size="13" font-weight="700" fill="#ffffff" letter-spacing="0.06em">OPS SENTINEL ENGINE</text>
  <text x="450" y="248" text-anchor="middle" font-size="10" fill="rgba(255,255,255,0.5)">Automated Data Pipeline · Real-Time Processing · Metrics Computation · Compliance Scheduling</text>
  <text x="450" y="266" text-anchor="middle" font-size="9" fill="rgba(139,155,85,0.7)" letter-spacing="0.1em">PURPOSE-BUILT · VENDOR AGNOSTIC · PIPELINE SPECIFIC</text>
  <line x1="130" y1="278" x2="130" y2="335" stroke="rgba(139,155,85,0.35)" stroke-width="1.5" stroke-dasharray="4,3"/>
  <polygon points="130,338 126,331 134,331" fill="rgba(139,155,85,0.5)"/>
  <line x1="285" y1="278" x2="285" y2="335" stroke="rgba(139,155,85,0.35)" stroke-width="1.5" stroke-dasharray="4,3"/>
  <polygon points="285,338 281,331 289,331" fill="rgba(139,155,85,0.5)"/>
  <line x1="450" y1="278" x2="450" y2="335" stroke="rgba(139,155,85,0.35)" stroke-width="1.5" stroke-dasharray="4,3"/>
  <polygon points="450,338 446,331 454,331" fill="rgba(139,155,85,0.5)"/>
  <line x1="615" y1="278" x2="615" y2="335" stroke="rgba(139,155,85,0.35)" stroke-width="1.5" stroke-dasharray="4,3"/>
  <polygon points="615,338 611,331 619,331" fill="rgba(139,155,85,0.5)"/>
  <line x1="770" y1="278" x2="770" y2="335" stroke="rgba(139,155,85,0.35)" stroke-width="1.5" stroke-dasharray="4,3"/>
  <polygon points="770,338 766,331 774,331" fill="rgba(139,155,85,0.5)"/>
  <rect x="40" y="338" width="150" height="70" rx="6" fill="#2a2e1a" stroke="rgba(139,155,85,0.6)" stroke-width="1.5"/>
  <text x="115" y="362" text-anchor="middle" font-size="10" font-weight="700" fill="#ffffff">Alarm</text>
  <text x="115" y="376" text-anchor="middle" font-size="10" font-weight="700" fill="#ffffff">Rationalization</text>
  <text x="115" y="395" text-anchor="middle" font-size="9" fill="rgba(255,255,255,0.4)">ISA-18.2 · Auto AMR/AAR</text>
  <rect x="210" y="338" width="150" height="70" rx="6" fill="#2a2e1a" stroke="rgba(139,155,85,0.6)" stroke-width="1.5"/>
  <text x="285" y="362" text-anchor="middle" font-size="10" font-weight="700" fill="#ffffff">Shift Reports</text>
  <text x="285" y="376" text-anchor="middle" font-size="10" font-weight="700" fill="#ffffff">&amp; Logs</text>
  <text x="285" y="395" text-anchor="middle" font-size="9" fill="rgba(255,255,255,0.4)">Auto-generated · Signed</text>
  <rect x="375" y="338" width="150" height="70" rx="6" fill="#2a2e1a" stroke="rgba(139,155,85,0.6)" stroke-width="1.5"/>
  <text x="450" y="362" text-anchor="middle" font-size="10" font-weight="700" fill="#ffffff">Fatigue</text>
  <text x="450" y="376" text-anchor="middle" font-size="10" font-weight="700" fill="#ffffff">Management</text>
  <text x="450" y="395" text-anchor="middle" font-size="9" fill="rgba(255,255,255,0.4)">HOS Tracking · Scheduling</text>
  <rect x="540" y="338" width="150" height="70" rx="6" fill="#2a2e1a" stroke="rgba(139,155,85,0.6)" stroke-width="1.5"/>
  <text x="615" y="362" text-anchor="middle" font-size="10" font-weight="700" fill="#ffffff">Point-to-Point</text>
  <text x="615" y="376" text-anchor="middle" font-size="10" font-weight="700" fill="#ffffff">Verification</text>
  <text x="615" y="395" text-anchor="middle" font-size="9" fill="rgba(255,255,255,0.4)">SCADA · Controlled Docs</text>
  <rect x="710" y="338" width="150" height="70" rx="6" fill="#2a2e1a" stroke="rgba(139,155,85,0.6)" stroke-width="1.5"/>
  <text x="785" y="362" text-anchor="middle" font-size="10" font-weight="700" fill="#ffffff">Metrics &amp;</text>
  <text x="785" y="376" text-anchor="middle" font-size="10" font-weight="700" fill="#ffffff">Analytics</text>
  <text x="785" y="395" text-anchor="middle" font-size="9" fill="rgba(255,255,255,0.4)">KPIs · Operational Data</text>
  <line x1="450" y1="408" x2="450" y2="455" stroke="rgba(139,155,85,0.5)" stroke-width="2"/>
  <polygon points="450,458 445,451 455,451" fill="#6B7B3A"/>
  <rect x="200" y="458" width="500" height="60" rx="8" fill="#3a4520" stroke="#8A9B55" stroke-width="2"/>
  <text x="450" y="484" text-anchor="middle" font-size="13" font-weight="700" fill="#ffffff" letter-spacing="0.05em">AUDIT-READY COMPLIANCE RECORD</text>
  <text x="450" y="503" text-anchor="middle" font-size="10" fill="rgba(255,255,255,0.55)">Every deliverable auto-generated, signed, revision-controlled, and instantly retrievable</text>
  <rect x="200" y="530" width="148" height="28" rx="4" fill="none" stroke="rgba(139,155,85,0.4)" stroke-width="1"/>
  <text x="274" y="549" text-anchor="middle" font-size="9" fill="rgba(139,155,85,0.8)" letter-spacing="0.1em">49 CFR 195.446</text>
  <rect x="376" y="530" width="148" height="28" rx="4" fill="none" stroke="rgba(139,155,85,0.4)" stroke-width="1"/>
  <text x="450" y="549" text-anchor="middle" font-size="9" fill="rgba(139,155,85,0.8)" letter-spacing="0.1em">49 CFR 192.631</text>
  <rect x="552" y="530" width="148" height="28" rx="4" fill="none" stroke="rgba(139,155,85,0.4)" stroke-width="1"/>
  <text x="626" y="549" text-anchor="middle" font-size="9" fill="rgba(139,155,85,0.8)" letter-spacing="0.1em">ISA-18.2</text>
</svg>
